<svg width="95" height="128" viewBox="0 0 95 128" fill="none" xmlns="http://www.w3.org/2000/svg">
<rect width="1440" height="900" transform="translate(-372 -594)" fill="white"/>
<g clip-path="url(#clip0_1_386)">
<path fill-rule="evenodd" clip-rule="evenodd" d="M87.6756 17.3611C87.6502 17.8152 87.3269 18.02 87.1685 18.219C86.6972 18.7247 86.2861 19.2646 85.8685 19.7916C85.3897 20.3959 84.8327 20.9373 84.4084 21.586C83.9632 22.2644 83.393 22.8455 82.8894 23.4758C82.3837 24.1086 81.9572 24.809 81.4106 25.3948C80.7623 26.0887 80.3358 26.9469 79.6939 27.6223C78.8857 28.4729 78.3857 29.5413 77.6248 30.4114C76.2123 32.0282 75.1453 33.8901 73.8931 35.6191C72.8547 37.052 71.8899 38.5394 70.8853 39.9972C69.7345 41.6681 68.5761 43.3335 67.4199 45.0019C67.3675 45.0774 67.3009 45.1496 67.2715 45.2334C66.9034 46.2643 66.1052 47.0206 65.5705 47.9442C65.5164 48.0402 65.4139 48.1132 65.3784 48.2129C65.0633 49.0801 64.3566 49.7158 63.9809 50.5231C63.5645 51.4181 62.8502 52.1221 62.5237 53.0569C62.5126 53.0919 62.4997 53.1298 62.4778 53.1566C61.8413 53.9288 61.5402 54.9152 60.8958 55.6773C60.6915 55.9197 60.7245 56.2426 60.5302 56.4734C59.9542 57.1561 59.6155 57.9893 59.1826 58.7572C58.8711 59.308 58.55 59.8715 58.259 60.4418C57.9787 60.9891 57.6465 61.5334 57.3726 62.086C57.0386 62.7625 56.6182 63.387 56.2759 64.0578C55.8756 64.8412 55.4967 65.6405 55.0656 66.4127C54.5032 67.4219 54.0154 68.4766 53.5409 69.5349C52.8094 71.1689 52.0112 72.7737 51.317 74.4233C50.9242 75.3552 50.4565 76.2582 50.1626 77.2337C50.0464 77.6213 49.8386 77.9728 49.6902 78.352C48.9759 80.1688 48.3057 82.0012 47.6394 83.8364C47.0917 85.3433 46.5892 86.8657 46.1011 88.3889C45.8631 89.1326 45.7 89.9149 45.5026 90.6781C45.2836 91.5139 45.094 92.3566 44.8689 93.1913C44.7065 93.7938 44.6033 94.4132 44.4549 95.02C44.237 95.9143 44.1399 96.8307 43.955 97.7319C43.7829 98.5753 43.6145 99.4241 43.5503 100.289C43.5073 100.86 43.4019 101.427 43.317 101.99C43.0908 103.478 43.0432 104.971 43.0037 106.471C42.9701 107.763 43.141 109.028 43.3994 110.273C43.6284 111.381 44.1152 112.438 44.8495 113.298C45.7649 114.37 46.9362 115.03 48.41 114.993C49.4959 115.086 49.9748 115.012 50.7815 114.996C51.9112 114.994 52.8789 114.672 53.8771 114.301C54.9426 113.905 56.0021 113.493 57.0458 113.042C57.9568 112.648 58.8156 112.14 59.689 111.667C61.2273 110.838 62.6792 109.871 64.1304 108.897C65.8267 107.758 67.431 106.497 69.0424 105.247C69.9706 104.528 70.833 103.723 71.7415 102.976C73.3895 101.615 74.9278 100.131 76.498 98.6833C77.6054 97.6618 78.6448 96.563 79.7132 95.4972C79.7828 95.426 79.8516 95.3635 79.944 95.4354C80.0319 95.5048 80.0172 95.6099 79.9577 95.6853C79.7645 95.931 79.5756 96.1845 79.358 96.4081C77.2338 98.5883 75.203 100.865 72.9762 102.941C71.7229 104.109 70.5265 105.338 69.2373 106.472C68.0908 107.483 66.955 108.509 65.8049 109.517C65.0433 110.184 64.2372 110.801 63.4573 111.447C62.1509 112.529 60.784 113.53 59.4023 114.508C57.7945 115.647 56.1401 116.717 54.4197 117.68C53.0538 118.445 51.6603 119.151 50.2074 119.735C49.0128 120.215 47.7885 120.61 46.5262 120.846C45.7366 120.993 44.9456 121.154 44.1263 121.122C42.5643 121.06 41.1278 120.638 39.8415 119.737C39.4168 119.509 39.0724 119.167 38.6896 118.881C38.6459 118.848 38.6165 118.808 38.5753 118.765C37.7796 117.819 37.0381 116.682 36.8166 115.364C36.746 114.945 36.6399 114.535 36.561 114.12C36.2836 112.645 36.3797 111.161 36.4284 109.686C36.4485 109.081 36.5517 108.443 36.7313 107.84C36.8155 107.559 36.8574 107.261 36.8897 106.969C37.0115 105.849 37.3036 104.762 37.5198 103.66C37.7972 102.232 38.143 100.816 38.5229 99.4085C38.9222 97.9276 39.3397 96.4532 39.8103 94.9944C41.0877 91.0324 42.5984 87.1619 44.2528 83.3448C45.4445 80.595 46.7129 77.8825 48.03 75.1937C49.2597 72.6878 50.5572 70.2157 51.894 67.7672C52.956 65.8211 54.0452 63.8909 55.1512 61.969C55.9903 60.5119 56.8526 59.07 57.7224 57.6332C59.1672 55.249 60.6374 52.8813 62.1645 50.548C63.3476 48.7413 64.5239 46.9303 65.75 45.1521C67.4475 42.6906 69.1621 40.2417 70.9258 37.8271C72.243 36.024 73.5809 34.2379 74.9296 32.4598C75.9668 31.0934 77.0481 29.7609 78.1165 28.4195C79.0125 27.294 79.9111 26.1689 80.8246 25.0582C81.5855 24.1328 82.3658 23.223 83.1482 22.3149C84.3879 20.8766 85.6352 19.4438 86.8857 18.0145C87.0749 17.7975 87.3011 17.5732 87.6756 17.3611Z" fill="#ED002E"/>
<path fill-rule="evenodd" clip-rule="evenodd" d="M25.744 121.118C25.744 99.8505 25.7333 77.0892 25.7333 55.8203L25.7365 54.7612H15.0001L15.0047 54.0663L15.0001 52.8596H33.2781C33.2792 63.9013 33.2204 75.9283 33.2204 86.97V121.126" fill="#000333"/>
<path fill-rule="evenodd" clip-rule="evenodd" d="M32.6448 121.118C32.2226 121.132 31.7997 121.123 31.3767 121.123C29.7589 121.124 28.141 121.125 26.5232 121.122" fill="black"/>
</g>
<defs>
<clipPath id="clip0_1_386">
<rect width="257" height="105" fill="white" transform="translate(15 17)"/>
</clipPath>
</defs>
</svg>
